# xmcd CD database file
#
# Track frame offsets:
#	150
#	25200
#	42944
#	65604
#	88018
#	101121
#	124061
#	143850
#	165457
#	187107
#	210690
#	234742
#	259251
#	283590
#	313767
#
# Disc length: 4465 seconds
#
# Revision: 2
# Processed by: cddbd v1.5PL3 Copyright (c) Steve Scherf et al.
# Submitted via: CDex 1.51
#
DISCID=e2116f0f
DTITLE=Phil Collins - Golden Collection 2000
DYEAR=1999
DGENRE=Pop
TTITLE0=In The Air Tonight
TTITLE1=This Must Be love
TTITLE2=I Don't Care Anymore
TTITLE3=Do You Know, Do You Care ?
TTITLE4=You Can't Hurry Love
TTITLE5=Thru These Walls
TTITLE6=Sussudio
TTITLE7=One More Night
TTITLE8=Don't Lose My Number
TTITLE9=Inside Out
TTITLE10=That's First The Way It Is
TTITLE11=I Wish It Would Rain Down
TTITLE12=Another Day In Paradise
TTITLE13=Both Sides Of The Story
TTITLE14=Can't Turn Back The Years
EXTD=YEAR: 1999
EXTT0=
EXTT1=
EXTT2=
EXTT3=
EXTT4=
EXTT5=
EXTT6=
EXTT7=
EXTT8=
EXTT9=
EXTT10=
EXTT11=
EXTT12=
EXTT13=
EXTT14=
PLAYORDER=
